<svg width="105" height="105" viewBox="0 0 105 105" fill="none" xmlns="http://www.w3.org/2000/svg">
<rect width="105" height="105" fill="url(#paint0_linear_4205_26517)"/>
<path d="M33.0254 31.0879L35.0004 58.2879L52.3129 65.9379L69.6629 58.2879L71.9379 31.0879H33.0379M35.8004 33.3504H38.3004" stroke="white" stroke-linecap="round" stroke-linejoin="round"/>
<path d="M43.9746 33.3496H63.8246" stroke="white" stroke-linecap="round" stroke-linejoin="round"/>
<path d="M66.6621 33.3496H69.1621L68.9246 35.8371" stroke="white" stroke-linecap="round" stroke-linejoin="round"/>
<path d="M68.3508 41.8867L67.4883 50.9617" stroke="white" stroke-linecap="round" stroke-linejoin="round"/>
<path d="M67.1992 53.9883L66.9617 56.4758L64.6992 57.5258" stroke="white" stroke-linecap="round" stroke-linejoin="round"/>
<path d="M61.3883 59.0508L56.4258 61.3258" stroke="white" stroke-linecap="round" stroke-linejoin="round"/>
<path d="M54.7746 62.0879L52.4996 63.1379L50.2246 62.1004" stroke="white" stroke-linecap="round" stroke-linejoin="round"/>
<path d="M46.9004 60.5629L41.9004 58.2754" stroke="white" stroke-linecap="round" stroke-linejoin="round"/>
<path d="M40.2246 57.5133L37.9621 56.4758L37.7246 53.9883" stroke="white" stroke-linecap="round" stroke-linejoin="round"/>
<path d="M37.1633 47.9371L36.3133 38.8621M36.0383 35.8371L35.8008 33.3496" stroke="white" stroke-linecap="round" stroke-linejoin="round"/>
<path d="M41.7129 30.9121L44.8629 16.4746L69.6504 21.8871L67.6504 31.0621" stroke="white" stroke-linecap="round" stroke-linejoin="round"/>
<path d="M45.2617 30.5008L47.0867 22.1758L65.2492 26.1258L64.3242 30.3758" stroke="white" stroke-linecap="round" stroke-linejoin="round"/>
<path d="M25.0539 86.5L21.4789 81.125L18.3289 86.5H13.4789L19.1039 77.575L13.3539 68.95H18.3289L21.8539 74.25L24.9539 68.95H29.8039L24.2289 77.8L30.0289 86.5H25.0539ZM36.45 74.525C36.8667 73.875 37.4417 73.35 38.175 72.95C38.9083 72.55 39.7667 72.35 40.75 72.35C41.9 72.35 42.9417 72.6417 43.875 73.225C44.8083 73.8083 45.5417 74.6417 46.075 75.725C46.625 76.8083 46.9 78.0667 46.9 79.5C46.9 80.9333 46.625 82.2 46.075 83.3C45.5417 84.3833 44.8083 85.225 43.875 85.825C42.9417 86.4083 41.9 86.7 40.75 86.7C39.7833 86.7 38.925 86.5 38.175 86.1C37.4417 85.7 36.8667 85.1833 36.45 84.55V93.15H32.175V72.55H36.45V74.525ZM42.55 79.5C42.55 78.4333 42.25 77.6 41.65 77C41.0667 76.3833 40.3417 76.075 39.475 76.075C38.625 76.075 37.9 76.3833 37.3 77C36.7167 77.6167 36.425 78.4583 36.425 79.525C36.425 80.5917 36.7167 81.4333 37.3 82.05C37.9 82.6667 38.625 82.975 39.475 82.975C40.325 82.975 41.05 82.6667 41.65 82.05C42.25 81.4167 42.55 80.5667 42.55 79.5ZM62.2928 79.3C62.2928 79.7 62.2678 80.1167 62.2178 80.55H52.5428C52.6094 81.4167 52.8844 82.0833 53.3678 82.55C53.8678 83 54.4761 83.225 55.1928 83.225C56.2594 83.225 57.0011 82.775 57.4178 81.875H61.9678C61.7344 82.7917 61.3094 83.6167 60.6928 84.35C60.0928 85.0833 59.3344 85.6583 58.4178 86.075C57.5011 86.4917 56.4761 86.7 55.3428 86.7C53.9761 86.7 52.7594 86.4083 51.6928 85.825C50.6261 85.2417 49.7928 84.4083 49.1928 83.325C48.5928 82.2417 48.2928 80.975 48.2928 79.525C48.2928 78.075 48.5844 76.8083 49.1678 75.725C49.7678 74.6417 50.6011 73.8083 51.6678 73.225C52.7344 72.6417 53.9594 72.35 55.3428 72.35C56.6928 72.35 57.8928 72.6333 58.9428 73.2C59.9928 73.7667 60.8094 74.575 61.3928 75.625C61.9928 76.675 62.2928 77.9 62.2928 79.3ZM57.9178 78.175C57.9178 77.4417 57.6678 76.8583 57.1678 76.425C56.6678 75.9917 56.0428 75.775 55.2928 75.775C54.5761 75.775 53.9678 75.9833 53.4678 76.4C52.9844 76.8167 52.6844 77.4083 52.5678 78.175H57.9178ZM73.048 72.4C74.6814 72.4 75.9814 72.9333 76.948 74C77.9314 75.05 78.423 76.5 78.423 78.35V86.5H74.173V78.925C74.173 77.9917 73.9314 77.2667 73.448 76.75C72.9647 76.2333 72.3147 75.975 71.498 75.975C70.6814 75.975 70.0314 76.2333 69.548 76.75C69.0647 77.2667 68.823 77.9917 68.823 78.925V86.5H64.548V72.55H68.823V74.4C69.2564 73.7833 69.8397 73.3 70.573 72.95C71.3064 72.5833 72.1314 72.4 73.048 72.4ZM85.3937 82.975H91.4437V86.5H80.6187V83.1L86.4187 76.075H80.6687V72.55H91.3187V75.95L85.3937 82.975Z" fill="white"/>
<defs>
<linearGradient id="paint0_linear_4205_26517" x1="1.59091" y1="95" x2="110.772" y2="93.1884" gradientUnits="userSpaceOnUse">
<stop stop-color="#35228E" stop-opacity="0.97"/>
<stop offset="1" stop-color="#5480FB" stop-opacity="0.79"/>
</linearGradient>
</defs>
</svg>
